<?xml version="1.0" encoding="UTF-8"?> <svg xmlns="http://www.w3.org/2000/svg" width="65.516" height="72.067" viewBox="0 0 65.516 72.067"><g id="Group_1991" data-name="Group 1991" transform="translate(-2)"><path id="Path_2344" data-name="Path 2344" d="M24.222,31.1a6.552,6.552,0,1,0-6.552-6.552A6.558,6.558,0,0,0,24.222,31.1Zm0-9.827a3.276,3.276,0,1,1-3.276,3.276A3.28,3.28,0,0,1,24.222,21.276Z" transform="translate(9.996 11.482)" fill="#55a5b0"></path><path id="Path_2345" data-name="Path 2345" d="M59.452,36.024q.948-.919,1.8-1.839A4.8,4.8,0,0,0,62.6,34.4a4.928,4.928,0,1,0-4.036-2.123q-.73.769-1.531,1.538a75.781,75.781,0,0,0-7.893-5.916,75.841,75.841,0,0,0-1.251-8.719c8.193-1.921,14.207-1.364,15.861,1.314a1.637,1.637,0,0,0,2.786-1.721c-2.321-3.762-9.3-5.2-19.411-2.853C44.543,6.188,40.065,0,34.758,0s-9.8,6.216-12.382,15.978c-.262-.062-.518-.115-.778-.172a4.9,4.9,0,1,0-.714,3.2c.249.056.5.106.747.167a75.928,75.928,0,0,0-1.253,8.727,75.784,75.784,0,0,0-7.911,5.931C8.783,30.3,6.288,26.861,5.51,23.954a4.333,4.333,0,0,1,.257-3.464,4.167,4.167,0,0,1,1.844-1.527A1.638,1.638,0,0,0,6.223,16a7.359,7.359,0,0,0-3.241,2.771A7.441,7.441,0,0,0,2.346,24.8C3.26,28.214,6,32.113,10.054,36.034,6,39.955,3.26,43.853,2.346,47.266A7.441,7.441,0,0,0,2.981,53.3c1.556,2.521,5.2,4.006,10.473,4.006a40.073,40.073,0,0,0,9-1.153q.349,1.307.744,2.535a4.9,4.9,0,1,0,3.377-1.361c-.124,0-.239.028-.36.036-.21-.668-.411-1.35-.6-2.056a76.664,76.664,0,0,0,9.146-3.377A76.75,76.75,0,0,0,43.9,55.307c-2.254,8.393-5.813,13.485-9.144,13.485a3.611,3.611,0,0,1-1.133-.187,1.638,1.638,0,1,0-1.02,3.114,6.925,6.925,0,0,0,2.154.349c5.305,0,9.782-6.183,12.364-15.9a39.966,39.966,0,0,0,8.94,1.142c5.274,0,8.917-1.486,10.473-4.006a7.441,7.441,0,0,0,.636-6.032C66.256,43.85,63.511,39.948,59.452,36.024Zm3.146-8.18a1.638,1.638,0,1,1-1.638,1.638A1.64,1.64,0,0,1,62.6,27.844ZM16.743,18.017a1.638,1.638,0,1,1,1.638-1.638A1.64,1.64,0,0,1,16.743,18.017ZM28.206,62.24A1.637,1.637,0,1,1,26.57,60.6,1.639,1.639,0,0,1,28.206,62.24ZM54.59,36.021c-1.589,1.356-3.315,2.7-5.177,4,.054-1.305.085-2.634.085-3.988s-.031-2.685-.085-3.993C51.278,33.349,53.012,34.684,54.59,36.021Zm-31.3.013c0-2.169.085-4.25.229-6.26,1.7-1.074,3.477-2.123,5.33-3.123,2-1.079,3.97-2.044,5.9-2.914,1.975.889,3.956,1.859,5.911,2.914,1.852,1,3.628,2.049,5.33,3.123.144,2.01.229,4.091.229,6.26s-.087,4.254-.229,6.263c-1.705,1.076-3.482,2.121-5.33,3.12-2,1.081-3.975,2.046-5.9,2.917-1.929-.871-3.9-1.836-5.9-2.917-1.854-1-3.631-2.051-5.336-3.127C23.371,40.243,23.294,38.15,23.294,36.034ZM45.609,25.7c-1.106-.655-2.231-1.3-3.392-1.929-1.125-.608-2.26-1.183-3.4-1.739,2.031-.789,3.99-1.456,5.864-2.006C45.05,21.8,45.363,23.7,45.609,25.7ZM34.758,3.276c3.331,0,6.892,5.094,9.146,13.49a76.354,76.354,0,0,0-9.2,3.376A80.888,80.888,0,0,0,25.6,16.823C27.849,8.393,31.418,3.276,34.758,3.276ZM24.836,20.015c1.9.562,3.861,1.243,5.842,2.015-1.11.549-2.232,1.12-3.379,1.739s-2.286,1.274-3.392,1.929C24.153,23.7,24.465,21.8,24.836,20.015ZM20.1,32.04c-.054,1.309-.085,2.637-.085,3.993s.039,2.678.1,4c-1.875-1.315-3.62-2.658-5.2-4C16.492,34.692,18.232,33.352,20.1,32.04ZM5.767,51.577a4.333,4.333,0,0,1-.257-3.464c.778-2.907,3.273-6.35,6.956-9.872A75.779,75.779,0,0,0,20.4,44.185a77.048,77.048,0,0,0,1.278,8.7C13.459,54.817,7.425,54.262,5.767,51.577Zm19.078.465c-.373-1.812-.681-3.7-.922-5.665,1.1.654,2.219,1.3,3.376,1.921s2.28,1.184,3.4,1.739C28.672,50.827,26.716,51.492,24.845,52.042Zm13.971-2c1.12-.555,2.244-1.114,3.4-1.739s2.283-1.269,3.39-1.926c-.244,2-.557,3.895-.925,5.674Q41.869,51.22,38.817,50.038Zm24.932,1.54c-1.654,2.68-7.669,3.238-15.863,1.315a75.739,75.739,0,0,0,1.255-8.737,75.511,75.511,0,0,0,7.9-5.926c3.69,3.526,6.188,6.973,6.968,9.883A4.333,4.333,0,0,1,63.749,51.577Z" transform="translate(0 0)" fill="#55a5b0"></path></g></svg> 