<?xml version="1.0" encoding="UTF-8"?> <svg xmlns="http://www.w3.org/2000/svg" id="Group_1988" data-name="Group 1988" width="72.901" height="69.587" viewBox="0 0 72.901 69.587"><path id="Path_2311" data-name="Path 2311" d="M223.657,146.314A1.657,1.657,0,1,0,222,144.657,1.655,1.655,0,0,0,223.657,146.314Z" transform="translate(-212.059 -86.667)" fill="#0e5990"></path><path id="Path_2312" data-name="Path 2312" d="M229.314,144.657a1.657,1.657,0,1,0-1.657,1.657A1.657,1.657,0,0,0,229.314,144.657Z" transform="translate(-209.432 -86.667)" fill="#0e5990"></path><path id="Path_2313" data-name="Path 2313" d="M233.314,144.657a1.657,1.657,0,1,0-1.657,1.657A1.656,1.656,0,0,0,233.314,144.657Z" transform="translate(-206.804 -86.667)" fill="#0e5990"></path><path id="Path_2314" data-name="Path 2314" d="M244,116.657A1.657,1.657,0,1,0,245.657,115,1.656,1.656,0,0,0,244,116.657Z" transform="translate(-197.608 -105.059)" fill="#0e5990"></path><path id="Path_2315" data-name="Path 2315" d="M248,116.657A1.657,1.657,0,1,0,249.658,115,1.657,1.657,0,0,0,248,116.657Z" transform="translate(-194.982 -105.059)" fill="#0e5990"></path><path id="Path_2316" data-name="Path 2316" d="M252,116.657A1.657,1.657,0,1,0,253.657,115,1.656,1.656,0,0,0,252,116.657Z" transform="translate(-192.354 -105.059)" fill="#0e5990"></path><path id="Path_2317" data-name="Path 2317" d="M226.627,125.568a6.634,6.634,0,0,0,6.627-6.627v-4.971A4.977,4.977,0,0,0,228.284,109h-3.314A4.977,4.977,0,0,0,220,113.971v4.971A6.634,6.634,0,0,0,226.627,125.568Zm-3.314-11.6a1.66,1.66,0,0,1,1.657-1.657h3.314a1.66,1.66,0,0,1,1.657,1.657v4.971a3.314,3.314,0,1,1-6.627,0Z" transform="translate(-213.373 -109)" fill="#0e5990"></path><path id="Path_2318" data-name="Path 2318" d="M217.657,137.568h23.2a1.657,1.657,0,0,0,0-3.314H219.314v-4.971a4.977,4.977,0,0,1,4.971-4.971h9.941a4.977,4.977,0,0,1,4.971,4.971,1.657,1.657,0,0,0,3.314,0A8.294,8.294,0,0,0,234.225,121h-9.941A8.294,8.294,0,0,0,216,129.284v6.627A1.657,1.657,0,0,0,217.657,137.568Z" transform="translate(-216 -101.118)" fill="#0e5990"></path><path id="Path_2319" data-name="Path 2319" d="M254.627,145.568a6.634,6.634,0,0,0,6.627-6.627v-4.971A4.977,4.977,0,0,0,256.284,129h-3.314A4.977,4.977,0,0,0,248,133.971v4.971A6.634,6.634,0,0,0,254.627,145.568Zm-3.314-11.6a1.66,1.66,0,0,1,1.657-1.657h3.314a1.66,1.66,0,0,1,1.657,1.657v4.971a3.314,3.314,0,0,1-6.627,0Z" transform="translate(-194.981 -95.863)" fill="#0e5990"></path><path id="Path_2320" data-name="Path 2320" d="M252.284,144.314h9.941a4.977,4.977,0,0,1,4.971,4.971,1.657,1.657,0,1,0,3.314,0A8.294,8.294,0,0,0,262.225,141h-9.941A8.294,8.294,0,0,0,244,149.284v6.627a1.657,1.657,0,0,0,1.657,1.657h23.2a1.657,1.657,0,1,0,0-3.314H247.314v-4.971A4.977,4.977,0,0,1,252.284,144.314Z" transform="translate(-197.608 -87.981)" fill="#0e5990"></path><path id="Path_2321" data-name="Path 2321" d="M247.48,139.628H235.314a5,5,0,0,1-3.514-1.455l-4.687-4.687a1.657,1.657,0,1,0-2.343,2.343l4.687,4.687a8.227,8.227,0,0,0,5.857,2.426H247.48a1.66,1.66,0,0,1,1.657,1.657v13.255a1.66,1.66,0,0,1-1.657,1.657h-26.51a1.66,1.66,0,0,1-1.657-1.657V144.6a1.66,1.66,0,0,1,1.657-1.657h3.314a1.657,1.657,0,0,0,0-3.314h-3.314A4.977,4.977,0,0,0,216,144.6v13.255a4.977,4.977,0,0,0,4.971,4.971h26.51a4.977,4.977,0,0,0,4.971-4.971V144.6A4.977,4.977,0,0,0,247.48,139.628Z" transform="translate(-216 -93.236)" fill="#0e5990"></path><path id="Path_2322" data-name="Path 2322" d="M269.48,109H242.971A4.977,4.977,0,0,0,238,113.971v13.255a4.977,4.977,0,0,0,4.971,4.971h12.166a5,5,0,0,1,3.514,1.455l4.687,4.687a1.657,1.657,0,0,0,2.343-2.343l-4.687-4.687a8.227,8.227,0,0,0-5.857-2.426H242.971a1.66,1.66,0,0,1-1.657-1.657V113.971a1.66,1.66,0,0,1,1.657-1.657H269.48a1.66,1.66,0,0,1,1.657,1.657v13.255a1.66,1.66,0,0,1-1.657,1.657h-3.314a1.657,1.657,0,1,0,0,3.314h3.314a4.977,4.977,0,0,0,4.971-4.971V113.971A4.977,4.977,0,0,0,269.48,109Z" transform="translate(-201.549 -109)" fill="#0e5990"></path></svg> 