<?xml version="1.0" encoding="UTF-8"?> <svg xmlns="http://www.w3.org/2000/svg" width="72.241" height="72.211" viewBox="0 0 72.241 72.211"><g id="Group_1989" data-name="Group 1989" transform="translate(0 -0.009)"><path id="Path_2334" data-name="Path 2334" d="M13,41.025a1.642,1.642,0,0,0,1.642,1.642h3.284v1.642a1.642,1.642,0,0,0,3.284,0V42.667h4.925v1.642a1.642,1.642,0,0,0,3.284,0V42.667h4.925v1.642a1.642,1.642,0,1,0,3.284,0V42.667h3.284a1.642,1.642,0,0,0,1.642-1.642V37.464a6.573,6.573,0,0,0-.936-3.379L38.33,28.606a4.927,4.927,0,0,1-.7-2.535V13.85a8.222,8.222,0,0,0-1.9-5.254L29.037.571a1.7,1.7,0,0,0-2.522,0L19.828,8.6a8.222,8.222,0,0,0-1.9,5.254V26.071a4.942,4.942,0,0,1-.7,2.535l-3.289,5.479A6.573,6.573,0,0,0,13,37.464Zm3.284-3.561a3.294,3.294,0,0,1,.468-1.689l3.289-5.48a8.214,8.214,0,0,0,1.169-4.223V13.85A4.936,4.936,0,0,1,22.35,10.7l5.426-6.512L33.2,10.7a4.936,4.936,0,0,1,1.141,3.152V26.071A8.225,8.225,0,0,0,35.513,30.3L38.8,35.775a3.294,3.294,0,0,1,.468,1.689v1.919H29.418V34.458a1.642,1.642,0,1,0-3.284,0v4.925H16.284Z" transform="translate(8.344 0)" fill="#f9bd2d"></path><path id="Path_2335" data-name="Path 2335" d="M23.925,20.842A4.925,4.925,0,1,0,19,15.916,4.932,4.932,0,0,0,23.925,20.842Zm0-6.567a1.642,1.642,0,1,1-1.642,1.642A1.645,1.645,0,0,1,23.925,14.275Z" transform="translate(12.195 7.049)" fill="#f9bd2d"></path><path id="Path_2336" data-name="Path 2336" d="M32.642,13.275H44.135a1.645,1.645,0,0,1,1.642,1.642v36.12a1.642,1.642,0,0,0,3.284,0V14.916a4.932,4.932,0,0,0-4.925-4.925H32.642a1.642,1.642,0,0,0,0,3.284Z" transform="translate(19.897 6.407)" fill="#f9bd2d"></path><path id="Path_2337" data-name="Path 2337" d="M70.6,55.962H11.493a1.642,1.642,0,1,0,0,3.284H68.957v1.642a1.645,1.645,0,0,1-1.642,1.642H4.925a1.645,1.645,0,0,1-1.642-1.642V59.246H4.925A1.642,1.642,0,0,0,6.567,57.6V14.916a1.643,1.643,0,0,1,1.642-1.642H19.7a1.642,1.642,0,1,0,0-3.284H8.209a4.93,4.93,0,0,0-4.925,4.925V55.962H1.642A1.642,1.642,0,0,0,0,57.6v3.284a4.932,4.932,0,0,0,4.925,4.925h62.39a4.932,4.932,0,0,0,4.925-4.925V57.6A1.642,1.642,0,0,0,70.6,55.962Z" transform="translate(0 6.407)" fill="#f9bd2d"></path><path id="Path_2338" data-name="Path 2338" d="M49.329,16.275h8.209V34.514a8.225,8.225,0,0,0-6.429,6.526,8.228,8.228,0,0,0-5.453,3.747,9.828,9.828,0,0,0-7.82-3.885,1.642,1.642,0,1,0,0,3.284,6.562,6.562,0,0,1,6.334,4.925H21.651a6.562,6.562,0,0,1,6.334-4.925,1.642,1.642,0,1,0,0-3.284,9.828,9.828,0,0,0-7.82,3.885,8.228,8.228,0,0,0-5.453-3.747,8.225,8.225,0,0,0-6.429-6.526V16.275h8.209a1.642,1.642,0,1,0,0-3.284H6.642A1.642,1.642,0,0,0,5,14.633v36.12a1.642,1.642,0,0,0,1.642,1.642H59.18a1.642,1.642,0,0,0,1.642-1.642V14.633a1.642,1.642,0,0,0-1.642-1.642H49.329a1.642,1.642,0,1,0,0,3.284ZM8.284,37.921a4.919,4.919,0,0,1,3.284,4.623,1.642,1.642,0,0,0,1.642,1.642,4.932,4.932,0,0,1,4.925,4.925H8.284ZM57.539,49.111H47.688a4.932,4.932,0,0,1,4.925-4.925,1.642,1.642,0,0,0,1.642-1.642,4.919,4.919,0,0,1,3.284-4.623Z" transform="translate(3.209 8.332)" fill="#f9bd2d"></path></g></svg> 