<?xml version="1.0" encoding="UTF-8"?> <svg xmlns="http://www.w3.org/2000/svg" width="76.823" height="69.839" viewBox="0 0 76.823 69.839"><g id="Group_1990" data-name="Group 1990" transform="translate(0 -2)"><circle id="Ellipse_119" data-name="Ellipse 119" cx="1.746" cy="1.746" r="1.746" transform="translate(57.617 5.492)" fill="#a4bb4b"></circle><circle id="Ellipse_120" data-name="Ellipse 120" cx="1.746" cy="1.746" r="1.746" transform="translate(17.46 5.492)" fill="#a4bb4b"></circle><circle id="Ellipse_121" data-name="Ellipse 121" cx="1.746" cy="1.746" r="1.746" transform="translate(17.46 42.158)" fill="#a4bb4b"></circle><circle id="Ellipse_122" data-name="Ellipse 122" cx="1.746" cy="1.746" r="1.746" transform="translate(54.125 38.666)" fill="#a4bb4b"></circle><circle id="Ellipse_123" data-name="Ellipse 123" cx="1.746" cy="1.746" r="1.746" transform="translate(43.65 42.158)" fill="#a4bb4b"></circle><circle id="Ellipse_124" data-name="Ellipse 124" cx="0.873" cy="0.873" r="0.873" transform="translate(12.222 2)" fill="#a4bb4b"></circle><circle id="Ellipse_125" data-name="Ellipse 125" cx="0.873" cy="0.873" r="0.873" transform="translate(22.698 3.746)" fill="#a4bb4b"></circle><circle id="Ellipse_126" data-name="Ellipse 126" cx="0.873" cy="0.873" r="0.873" transform="translate(50.633 45.65)" fill="#a4bb4b"></circle><circle id="Ellipse_127" data-name="Ellipse 127" cx="0.873" cy="0.873" r="0.873" transform="translate(61.109 42.158)" fill="#a4bb4b"></circle><circle id="Ellipse_128" data-name="Ellipse 128" cx="0.873" cy="0.873" r="0.873" transform="translate(66.347 8.984)" fill="#a4bb4b"></circle><circle id="Ellipse_129" data-name="Ellipse 129" cx="0.873" cy="0.873" r="0.873" transform="translate(52.379 3.746)" fill="#a4bb4b"></circle><circle id="Ellipse_130" data-name="Ellipse 130" cx="0.873" cy="0.873" r="0.873" transform="translate(24.444 38.666)" fill="#a4bb4b"></circle><circle id="Ellipse_131" data-name="Ellipse 131" cx="0.873" cy="0.873" r="0.873" transform="translate(29.682 45.65)" fill="#a4bb4b"></circle><path id="Path_2339" data-name="Path 2339" d="M29.46,11.492A13.984,13.984,0,0,1,43.428,25.46v3.492a1.746,1.746,0,1,0,3.492,0V25.46a17.46,17.46,0,0,0-34.92,0v3.492a1.746,1.746,0,1,0,3.492,0V25.46A13.984,13.984,0,0,1,29.46,11.492Z" transform="translate(8.952 4.476)" fill="#a4bb4b"></path><path id="Path_2340" data-name="Path 2340" d="M45.147,12.906A24.872,24.872,0,0,1,47.7,14.434V55.716A26.011,26.011,0,0,0,26.18,53.6a1.746,1.746,0,0,0,1.131,3.3,22.819,22.819,0,0,1,21.1,3.427,1.745,1.745,0,0,0,2.78-1.407v-45.4a1.74,1.74,0,0,0-.712-1.406,28.273,28.273,0,0,0-3.721-2.319,1.746,1.746,0,0,0-1.61,3.1Z" transform="translate(18.649 5.677)" fill="#a4bb4b"></path><path id="Path_2341" data-name="Path 2341" d="M75.077,12.037a1.746,1.746,0,0,0-1.746,1.746V60.924a1.748,1.748,0,0,1-1.746,1.746H40.158V22.513a1.746,1.746,0,1,0-3.492,0V55.735a26.19,26.19,0,0,0-26.19-.017V14.434a24.872,24.872,0,0,1,2.551-1.528,1.746,1.746,0,0,0-1.61-3.1A28.274,28.274,0,0,0,7.7,12.126a1.74,1.74,0,0,0-.712,1.406v45.4a1.745,1.745,0,0,0,2.78,1.407,22.913,22.913,0,0,1,26.9-.482V62.67H5.238a1.748,1.748,0,0,1-1.746-1.746V13.783a1.746,1.746,0,1,0-3.492,0V60.924a5.244,5.244,0,0,0,5.238,5.238H71.585a5.244,5.244,0,0,0,5.238-5.238V13.783A1.746,1.746,0,0,0,75.077,12.037Z" transform="translate(0 5.677)" fill="#a4bb4b"></path><path id="Path_2342" data-name="Path 2342" d="M8,33.682a1.746,1.746,0,1,0,3.492,0V28.444a20.952,20.952,0,0,1,41.9,0v5.238a1.746,1.746,0,0,0,3.492,0V28.444A24.444,24.444,0,0,0,8,28.444Z" transform="translate(5.968 1.492)" fill="#a4bb4b"></path><path id="Path_2343" data-name="Path 2343" d="M19.492,22.476a6.984,6.984,0,1,1,13.968,0v1.746a1.746,1.746,0,1,0,3.492,0V22.476a10.476,10.476,0,1,0-20.952,0v1.746a1.746,1.746,0,1,0,3.492,0Z" transform="translate(11.936 7.46)" fill="#a4bb4b"></path></g></svg> 